<svg width="151" height="407" viewBox="0 0 151 407" fill="none" xmlns="http://www.w3.org/2000/svg">
<path d="M102.548 0V26.7094H48.5706V0H102.548Z" fill="black"/>
<path d="M95.3034 39.8737V128.52C82.3179 125.468 68.8041 125.468 55.8186 128.52V39.8737H95.3034Z" fill="black"/>
<path d="M75.532 139.332C55.4989 139.366 36.2971 147.347 22.1366 161.522C7.97907 175.694 0.017439 194.909 0 214.947V400.641C0 402.327 0.669861 403.945 1.86198 405.138C3.05409 406.33 4.67198 407 6.35797 407H144.642C146.328 407 147.946 406.33 149.138 405.138C150.33 403.945 151 402.327 151 400.641V214.947C150.983 194.92 143.03 175.717 128.886 161.544C114.739 147.369 95.552 139.383 75.5298 139.332H75.532ZM75.532 329.162C60.6587 329.162 46.3957 323.245 35.888 312.715C25.3803 302.185 19.491 287.908 19.5193 273.029C19.5477 258.153 25.4913 243.898 36.0384 233.408C46.5861 222.917 60.8716 217.055 75.7449 217.112C90.6211 217.168 104.861 223.139 115.329 233.709C125.798 244.278 131.63 258.578 131.548 273.455C131.445 288.255 125.502 302.413 115.011 312.846C104.518 323.282 90.3283 329.148 75.532 329.162Z" fill="black"/>
<path d="M118.446 273.454C118.463 284.841 113.956 295.771 105.915 303.834C97.874 311.897 86.9603 316.431 75.5726 316.442C64.1878 316.454 53.263 311.94 45.2076 303.894C37.1494 295.845 32.6196 284.926 32.6138 273.539C32.6081 262.151 37.1268 251.227 45.1764 243.173C53.226 235.116 64.1449 230.591 75.5297 230.591C86.8999 230.591 97.8081 235.105 105.855 243.142C113.901 251.18 118.429 262.082 118.446 273.454L118.446 273.454Z" fill="black"/>
<path d="M74.5114 291.477C71.9773 291.477 69.7273 291.051 67.7614 290.199C65.8068 289.347 64.2727 288.182 63.1591 286.705C62.0568 285.216 61.5114 283.528 61.5227 281.642C61.5114 280.176 61.8295 278.83 62.4773 277.602C63.125 276.375 64 275.352 65.1023 274.534C66.2159 273.705 67.4545 273.176 68.8182 272.949V272.71C67.0227 272.312 65.5682 271.398 64.4545 269.966C63.3523 268.523 62.8068 266.858 62.8182 264.972C62.8068 263.176 63.3068 261.574 64.3182 260.165C65.3295 258.756 66.7159 257.648 68.4773 256.841C70.2386 256.023 72.25 255.614 74.5114 255.614C76.75 255.614 78.7443 256.023 80.4943 256.841C82.2557 257.648 83.642 258.756 84.6534 260.165C85.6761 261.574 86.1875 263.176 86.1875 264.972C86.1875 266.858 85.625 268.523 84.5 269.966C83.3864 271.398 81.9489 272.312 80.1875 272.71V272.949C81.5511 273.176 82.7784 273.705 83.8693 274.534C84.9716 275.352 85.8466 276.375 86.4943 277.602C87.1534 278.83 87.483 280.176 87.483 281.642C87.483 283.528 86.9261 285.216 85.8125 286.705C84.6989 288.182 83.1648 289.347 81.2102 290.199C79.267 291.051 77.0341 291.477 74.5114 291.477ZM74.5114 286.602C75.8182 286.602 76.9545 286.381 77.9205 285.938C78.8864 285.483 79.6364 284.847 80.1705 284.028C80.7045 283.21 80.9773 282.267 80.9886 281.199C80.9773 280.085 80.6875 279.102 80.1193 278.25C79.5625 277.386 78.7955 276.71 77.8182 276.222C76.8523 275.733 75.75 275.489 74.5114 275.489C73.2614 275.489 72.1477 275.733 71.1705 276.222C70.1932 276.71 69.4205 277.386 68.8523 278.25C68.2955 279.102 68.0227 280.085 68.0341 281.199C68.0227 282.267 68.2841 283.21 68.8182 284.028C69.3523 284.835 70.1023 285.466 71.0682 285.92C72.0455 286.375 73.1932 286.602 74.5114 286.602ZM74.5114 270.699C75.5795 270.699 76.5227 270.483 77.3409 270.051C78.1705 269.619 78.8239 269.017 79.3011 268.244C79.7784 267.472 80.0227 266.58 80.0341 265.568C80.0227 264.568 79.7841 263.693 79.3182 262.943C78.8523 262.182 78.2045 261.597 77.375 261.188C76.5455 260.767 75.5909 260.557 74.5114 260.557C73.4091 260.557 72.4375 260.767 71.5966 261.188C70.767 261.597 70.1193 262.182 69.6534 262.943C69.1989 263.693 68.9773 264.568 68.9886 265.568C68.9773 266.58 69.2045 267.472 69.6705 268.244C70.1477 269.006 70.8011 269.608 71.6307 270.051C72.4716 270.483 73.4318 270.699 74.5114 270.699Z" fill="white"/>
</svg>
